<svg xmlns="http://www.w3.org/2000/svg" version="1.1" xmlns:xlink="http://www.w3.org/1999/xlink" xmlns:svgjs="http://svgjs.dev/svgjs" width="2000" height="1500" viewBox="0 0 2000 1500"><rect width="2000" height="1500" fill="#000000"></rect><g transform="matrix(0.75,0,0,0.75,249.090909090909,278.98548387096776)"><svg viewBox="0 0 396 248" data-background-color="#000000" preserveAspectRatio="xMidYMid meet" height="1252" width="2000" xmlns="http://www.w3.org/2000/svg" xmlns:xlink="http://www.w3.org/1999/xlink"><g id="tight-bounds" transform="matrix(1,0,0,1,0.2400000000000091,0.4000000000000057)"><svg viewBox="0 0 395.52 247.2" height="247.2" width="395.52"><rect width="395.52" height="247.2" fill="url(#28165131-db85-4b66-b2cf-6918bf007759)" mask="url(#aa4538a0-7b41-4e31-90b1-204c641dc4ec)" data-fill-palette-color="tertiary"></rect><g><svg></svg></g><g><svg viewBox="0 0 395.52 247.2" height="247.2" width="395.52"><g transform="matrix(1,0,0,1,75.54432,88.10166970954357)"><svg viewBox="0 0 244.43135999999998 70.99666058091285" height="70.99666058091285" width="244.43135999999998"><g><svg viewBox="0 0 244.43135999999998 70.99666058091285" height="70.99666058091285" width="244.43135999999998"><g><svg viewBox="0 0 244.43135999999998 70.99666058091285" height="70.99666058091285" width="244.43135999999998"><g id="textblocktransform"><svg viewBox="0 0 244.43135999999998 70.99666058091285" height="70.99666058091285" width="244.43135999999998" id="textblock"><g><svg viewBox="0 0 244.43135999999998 70.99666058091285" height="70.99666058091285" width="244.43135999999998"><g transform="matrix(1,0,0,1,0,0)"><svg width="244.43135999999998" viewBox="1.7999999999999998 -28 96.39 28" height="70.99666058091285" data-palette-color="url(#ce532682-ca67-45d7-96cd-bb150a752f03)"></svg></g></svg></g></svg></g></svg></g></svg></g></svg></g><path d="M206.487 82.102L206.487 25.362 10.012 25.362 10.012 221.838 206.487 221.838 206.487 165.098 200.085 165.098 200.085 215.435 16.415 215.435 16.415 31.765 200.085 31.765 200.085 82.102Z" fill="url(#28165131-db85-4b66-b2cf-6918bf007759)" stroke="transparent" data-fill-palette-color="tertiary"></path></svg></g><defs></defs><mask id="cc4da464-7ced-4d35-8c4a-9b05083cdef8"><g id="SvgjsG10103"><svg viewBox="0 0 395.52 247.2" height="247.2" width="395.52"><g><svg></svg></g><g><svg viewBox="0 0 395.52 247.2" height="247.2" width="395.52"><g transform="matrix(1,0,0,1,75.54432,88.10166970954357)"><svg viewBox="0 0 244.43135999999998 70.99666058091285" height="70.99666058091285" width="244.43135999999998"><g><svg viewBox="0 0 244.43135999999998 70.99666058091285" height="70.99666058091285" width="244.43135999999998"><g><svg viewBox="0 0 244.43135999999998 70.99666058091285" height="70.99666058091285" width="244.43135999999998"><g id="SvgjsG10102"><svg viewBox="0 0 244.43135999999998 70.99666058091285" height="70.99666058091285" width="244.43135999999998" id="SvgjsSvg10101"><g><svg viewBox="0 0 244.43135999999998 70.99666058091285" height="70.99666058091285" width="244.43135999999998"><g transform="matrix(1,0,0,1,0,0)"><svg width="244.43135999999998" viewBox="1.7999999999999998 -28 96.39 28" height="70.99666058091285" data-palette-color="url(#ce532682-ca67-45d7-96cd-bb150a752f03)"><path d="M18-24Q18.2-23.2 18.2-22L18.2-22Q18.2-20.85 18-20L18-20Q18.2-19.2 18.2-18L18.2-18Q18.2-16.85 18-16L18-16 16.5-16Q16.7-15.2 16.7-14L16.7-14Q16.7-12.85 16.5-12L16.5-12 15-12Q15.2-11.2 15.2-10L15.2-10Q15.2-8.85 15-8L15-8 14-8Q14.2-7.2 14.2-6L14.2-6Q14.2-4.85 14-4L14-4 12-4Q12.2-3.2 12.2-2L12.2-2Q12.2-0.85 12 0L12 0 8 0Q7.8-0.85 7.8-2L7.8-2Q7.8-3.2 8-4L8-4 6-4Q5.8-4.85 5.8-6L5.8-6Q5.8-7.2 6-8L6-8 5-8Q4.8-8.85 4.8-10L4.8-10Q4.8-11.2 5-12L5-12 3.5-12Q3.3-12.85 3.3-14L3.3-14Q3.3-15.2 3.5-16L3.5-16 2-16Q1.8-16.85 1.8-18L1.8-18Q1.8-19.2 2-20L2-20Q1.8-20.85 1.8-22L1.8-22Q1.8-23.2 2-24L2-24Q1.8-24.85 1.8-26L1.8-26Q1.8-27.2 2-28L2-28 6-28Q6.2-27.2 6.2-26L6.2-26Q6.2-24.85 6-24L6-24Q6.2-23.2 6.2-22L6.2-22Q6.2-20.85 6-20L6-20Q6.2-19.2 6.2-18L6.2-18Q6.2-16.85 6-16L6-16 7.5-16Q7.7-15.2 7.7-14L7.7-14Q7.7-12.85 7.5-12L7.5-12 9-12Q9.2-11.2 9.2-10L9.2-10Q9.2-8.85 9-8L9-8 11-8Q10.8-8.85 10.8-10L10.8-10Q10.8-11.2 11-12L11-12 12.5-12Q12.3-12.85 12.3-14L12.3-14Q12.3-15.2 12.5-16L12.5-16 14-16Q13.8-16.85 13.8-18L13.8-18Q13.8-19.2 14-20L14-20Q13.8-20.85 13.8-22L13.8-22Q13.8-23.2 14-24L14-24Q13.8-24.85 13.8-26L13.8-26Q13.8-27.2 14-28L14-28 18-28Q18.2-27.2 18.2-26L18.2-26Q18.2-24.85 18-24L18-24ZM38.2-6Q38.2-4.85 38-4L38-4Q38.2-3.2 38.2-2L38.2-2Q38.2-0.85 38 0L38 0 34 0Q33.8-0.85 33.8-2L33.8-2Q33.8-3.2 34-4L34-4Q33.8-4.85 33.8-6L33.8-6Q33.8-7.2 34-8L34-8 26-8Q26.2-7.2 26.2-6L26.2-6Q26.2-4.85 26-4L26-4Q26.2-3.2 26.2-2L26.2-2Q26.2-0.85 26 0L26 0 22 0Q21.8-0.85 21.8-2L21.8-2Q21.8-3.2 22-4L22-4Q21.8-4.85 21.8-6L21.8-6Q21.8-7.2 22-8L22-8 23.5-8Q23.3-8.85 23.3-10L23.3-10Q23.3-11.2 23.5-12L23.5-12Q23.3-12.85 23.3-14L23.3-14Q23.3-15.2 23.5-16L23.5-16 24.5-16Q24.3-16.85 24.3-18L24.3-18Q24.3-19.2 24.5-20L24.5-20 26-20Q25.8-20.85 25.8-22L25.8-22Q25.8-23.2 26-24L26-24 27-24Q26.8-24.85 26.8-26L26.8-26Q26.8-27.2 27-28L27-28 33-28Q33.2-27.2 33.2-26L33.2-26Q33.2-24.85 33-24L33-24 34-24Q34.2-23.2 34.2-22L34.2-22Q34.2-20.85 34-20L34-20 35.5-20Q35.7-19.2 35.7-18L35.7-18Q35.7-16.85 35.5-16L35.5-16 36.5-16Q36.7-15.2 36.7-14L36.7-14Q36.7-12.85 36.5-12L36.5-12Q36.7-11.2 36.7-10L36.7-10Q36.7-8.85 36.5-8L36.5-8 38-8Q38.2-7.2 38.2-6L38.2-6ZM32.5-12Q32.3-12.85 32.3-14L32.3-14Q32.3-15.2 32.5-16L32.5-16 31.5-16Q31.3-16.85 31.3-18L31.3-18Q31.3-19.2 31.5-20L31.5-20 28.5-20Q28.7-19.2 28.7-18L28.7-18Q28.7-16.85 28.5-16L28.5-16 27.5-16Q27.7-15.2 27.7-14L27.7-14Q27.7-12.85 27.5-12L27.5-12 32.5-12ZM56.5-4L58-4Q58.2-3.2 58.2-2L58.2-2Q58.2-0.85 58 0L58 0 54 0Q53.8-0.85 53.8-2L53.8-2Q53.8-3.2 54-4L54-4 52.5-4Q52.3-4.85 52.3-6L52.3-6Q52.3-7.2 52.5-8L52.5-8 51-8Q50.8-8.85 50.8-10L50.8-10Q50.8-11.2 51-12L51-12 46-12Q46.2-11.2 46.2-10L46.2-10Q46.2-8.85 46-8L46-8Q46.2-7.2 46.2-6L46.2-6Q46.2-4.85 46-4L46-4Q46.2-3.2 46.2-2L46.2-2Q46.2-0.85 46 0L46 0 42 0Q41.8-0.85 41.8-2L41.8-2Q41.8-3.2 42-4L42-4Q41.8-4.85 41.8-6L41.8-6Q41.8-7.2 42-8L42-8Q41.8-8.85 41.8-10L41.8-10Q41.8-11.2 42-12L42-12Q41.8-12.85 41.8-14L41.8-14Q41.8-15.2 42-16L42-16Q41.8-16.85 41.8-18L41.8-18Q41.8-19.2 42-20L42-20Q41.8-20.85 41.8-22L41.8-22Q41.8-23.2 42-24L42-24Q41.8-24.85 41.8-26L41.8-26Q41.8-27.2 42-28L42-28 56-28Q56.2-27.2 56.2-26L56.2-26Q56.2-24.85 56-24L56-24 58-24Q58.2-23.2 58.2-22L58.2-22Q58.2-20.85 58-20L58-20 57-20Q57.2-19.2 57.2-18L57.2-18Q57.2-16.85 57-16L57-16 54-16Q54.2-15.2 54.2-14L54.2-14Q54.2-12.85 54-12L54-12 55-12Q55.2-11.2 55.2-10L55.2-10Q55.2-8.85 55-8L55-8 56.5-8Q56.7-7.2 56.7-6L56.7-6Q56.7-4.85 56.5-4L56.5-4ZM53-16Q52.8-16.85 52.8-18L52.8-18Q52.8-19.2 53-20L53-20Q52.8-20.85 52.8-22L52.8-22Q52.8-23.2 53-24L53-24 46-24Q46.2-23.2 46.2-22L46.2-22Q46.2-20.85 46-20L46-20Q46.2-19.2 46.2-18L46.2-18Q46.2-16.85 46-16L46-16 53-16ZM77.99-24Q78.19-23.2 78.19-22L78.19-22Q78.19-20.85 77.99-20L77.99-20Q78.19-19.2 78.19-18L78.19-18Q78.19-16.85 77.99-16L77.99-16Q78.19-15.2 78.19-14L78.19-14Q78.19-12.85 77.99-12L77.99-12Q78.19-11.2 78.19-10L78.19-10Q78.19-8.85 77.99-8L77.99-8Q78.19-7.2 78.19-6L78.19-6Q78.19-4.85 77.99-4L77.99-4 75.99-4Q76.19-3.2 76.19-2L76.19-2Q76.19-0.85 75.99 0L75.99 0 63.99 0Q63.79-0.85 63.79-2L63.79-2Q63.79-3.2 63.99-4L63.99-4 61.99-4Q61.79-4.85 61.79-6L61.79-6Q61.79-7.2 61.99-8L61.99-8Q61.79-8.85 61.79-10L61.79-10Q61.79-11.2 61.99-12L61.99-12Q61.79-12.85 61.79-14L61.79-14Q61.79-15.2 61.99-16L61.99-16Q61.79-16.85 61.79-18L61.79-18Q61.79-19.2 61.99-20L61.99-20Q61.79-20.85 61.79-22L61.79-22Q61.79-23.2 61.99-24L61.99-24Q61.79-24.85 61.79-26L61.79-26Q61.79-27.2 61.99-28L61.99-28 65.99-28Q66.19-27.2 66.19-26L66.19-26Q66.19-24.85 65.99-24L65.99-24Q66.19-23.2 66.19-22L66.19-22Q66.19-20.85 65.99-20L65.99-20Q66.19-19.2 66.19-18L66.19-18Q66.19-16.85 65.99-16L65.99-16Q66.19-15.2 66.19-14L66.19-14Q66.19-12.85 65.99-12L65.99-12Q66.19-11.2 66.19-10L66.19-10Q66.19-8.85 65.99-8L65.99-8Q66.19-7.2 66.19-6L66.19-6Q66.19-4.85 65.99-4L65.99-4 73.99-4Q73.79-4.85 73.79-6L73.79-6Q73.79-7.2 73.99-8L73.99-8Q73.79-8.85 73.79-10L73.79-10Q73.79-11.2 73.99-12L73.99-12Q73.79-12.85 73.79-14L73.79-14Q73.79-15.2 73.99-16L73.99-16Q73.79-16.85 73.79-18L73.79-18Q73.79-19.2 73.99-20L73.99-20Q73.79-20.85 73.79-22L73.79-22Q73.79-23.2 73.99-24L73.99-24Q73.79-24.85 73.79-26L73.79-26Q73.79-27.2 73.99-28L73.99-28 77.99-28Q78.19-27.2 78.19-26L78.19-26Q78.19-24.85 77.99-24L77.99-24ZM97.99-24Q98.19-23.2 98.19-22L98.19-22Q98.19-20.85 97.99-20L97.99-20Q98.19-19.2 98.19-18L98.19-18Q98.19-16.85 97.99-16L97.99-16Q98.19-15.2 98.19-14L98.19-14Q98.19-12.85 97.99-12L97.99-12Q98.19-11.2 98.19-10L98.19-10Q98.19-8.85 97.99-8L97.99-8Q98.19-7.2 98.19-6L98.19-6Q98.19-4.85 97.99-4L97.99-4Q98.19-3.2 98.19-2L98.19-2Q98.19-0.85 97.99 0L97.99 0 93.99 0Q93.79-0.85 93.79-2L93.79-2Q93.79-3.2 93.99-4L93.99-4 91.49-4Q91.29-4.85 91.29-6L91.29-6Q91.29-7.2 91.49-8L91.49-8 89.99-8Q89.79-8.85 89.79-10L89.79-10Q89.79-11.2 89.99-12L89.99-12 87.99-12Q87.79-12.85 87.79-14L87.79-14Q87.79-15.2 87.99-16L87.99-16 85.99-16Q86.19-15.2 86.19-14L86.19-14Q86.19-12.85 85.99-12L85.99-12Q86.19-11.2 86.19-10L86.19-10Q86.19-8.85 85.99-8L85.99-8Q86.19-7.2 86.19-6L86.19-6Q86.19-4.85 85.99-4L85.99-4Q86.19-3.2 86.19-2L86.19-2Q86.19-0.85 85.99 0L85.99 0 81.99 0Q81.79-0.85 81.79-2L81.79-2Q81.79-3.2 81.99-4L81.99-4Q81.79-4.85 81.79-6L81.79-6Q81.79-7.2 81.99-8L81.99-8Q81.79-8.85 81.79-10L81.79-10Q81.79-11.2 81.99-12L81.99-12Q81.79-12.85 81.79-14L81.79-14Q81.79-15.2 81.99-16L81.99-16Q81.79-16.85 81.79-18L81.79-18Q81.79-19.2 81.99-20L81.99-20Q81.79-20.85 81.79-22L81.79-22Q81.79-23.2 81.99-24L81.99-24Q81.79-24.85 81.79-26L81.79-26Q81.79-27.2 81.99-28L81.99-28 86.99-28Q87.19-27.2 87.19-26L87.19-26Q87.19-24.85 86.99-24L86.99-24 88.49-24Q88.69-23.2 88.69-22L88.69-22Q88.69-20.85 88.49-20L88.49-20 89.99-20Q90.19-19.2 90.19-18L90.19-18Q90.19-16.85 89.99-16L89.99-16 91.99-16Q92.19-15.2 92.19-14L92.19-14Q92.19-12.85 91.99-12L91.99-12 93.99-12Q93.79-12.85 93.79-14L93.79-14Q93.79-15.2 93.99-16L93.99-16Q93.79-16.85 93.79-18L93.79-18Q93.79-19.2 93.99-20L93.99-20Q93.79-20.85 93.79-22L93.79-22Q93.79-23.2 93.99-24L93.99-24Q93.79-24.85 93.79-26L93.79-26Q93.79-27.2 93.99-28L93.99-28 97.99-28Q98.19-27.2 98.19-26L98.19-26Q98.19-24.85 97.99-24L97.99-24Z" opacity="1" transform="matrix(1,0,0,1,0,0)" fill="white" class="wordmark-text-0" id="SvgjsPath10100"></path></svg></g></svg></g></svg></g></svg></g></svg></g></svg></g><path d="M206.487 82.102L206.487 25.362 10.012 25.362 10.012 221.838 206.487 221.838 206.487 165.098 200.085 165.098 200.085 215.435 16.415 215.435 16.415 31.765 200.085 31.765 200.085 82.102Z" fill="black" stroke="transparent"></path></svg></g><defs><mask></mask></defs></svg><rect width="395.52" height="247.2" fill="black" stroke="none" visibility="hidden"></rect></g></mask><linearGradient x1="0" x2="1" y1="0.578" y2="0.595" id="ce532682-ca67-45d7-96cd-bb150a752f03"><stop stop-color="#dede50" offset="0"></stop><stop stop-color="#559c49" offset="1"></stop></linearGradient><rect width="395.52" height="247.2" fill="url(#ce532682-ca67-45d7-96cd-bb150a752f03)" mask="url(#cc4da464-7ced-4d35-8c4a-9b05083cdef8)" data-fill-palette-color="primary"></rect><mask id="aa4538a0-7b41-4e31-90b1-204c641dc4ec"><g id="SvgjsG10126"><svg viewBox="0 0 395.52 247.2" height="247.2" width="395.52"><g><svg></svg></g><g><svg viewBox="0 0 395.52 247.2" height="247.2" width="395.52"><g transform="matrix(1,0,0,1,75.54432,88.10166970954357)"><svg viewBox="0 0 244.43135999999998 70.99666058091285" height="70.99666058091285" width="244.43135999999998"><g><svg viewBox="0 0 244.43135999999998 70.99666058091285" height="70.99666058091285" width="244.43135999999998"><g><svg viewBox="0 0 244.43135999999998 70.99666058091285" height="70.99666058091285" width="244.43135999999998"><g id="SvgjsG10125"><svg viewBox="0 0 244.43135999999998 70.99666058091285" height="70.99666058091285" width="244.43135999999998" id="SvgjsSvg10124"><g><svg viewBox="0 0 244.43135999999998 70.99666058091285" height="70.99666058091285" width="244.43135999999998"><g transform="matrix(1,0,0,1,0,0)"><svg width="244.43135999999998" viewBox="1.7999999999999998 -28 96.39 28" height="70.99666058091285" data-palette-color="url(#ce532682-ca67-45d7-96cd-bb150a752f03)"></svg></g></svg></g></svg></g></svg></g></svg></g></svg></g><path d="M206.487 82.102L206.487 25.362 10.012 25.362 10.012 221.838 206.487 221.838 206.487 165.098 200.085 165.098 200.085 215.435 16.415 215.435 16.415 31.765 200.085 31.765 200.085 82.102Z" fill="white" stroke="transparent"></path></svg></g><defs><mask></mask></defs><mask><g id="SvgjsG10123"><svg viewBox="0 0 395.52 247.2" height="247.2" width="395.52"><g><svg></svg></g><g><svg viewBox="0 0 395.52 247.2" height="247.2" width="395.52"><g transform="matrix(1,0,0,1,75.54432,88.10166970954357)"><svg viewBox="0 0 244.43135999999998 70.99666058091285" height="70.99666058091285" width="244.43135999999998"><g><svg viewBox="0 0 244.43135999999998 70.99666058091285" height="70.99666058091285" width="244.43135999999998"><g><svg viewBox="0 0 244.43135999999998 70.99666058091285" height="70.99666058091285" width="244.43135999999998"><g id="SvgjsG10122"><svg viewBox="0 0 244.43135999999998 70.99666058091285" height="70.99666058091285" width="244.43135999999998" id="SvgjsSvg10121"><g><svg viewBox="0 0 244.43135999999998 70.99666058091285" height="70.99666058091285" width="244.43135999999998"><g transform="matrix(1,0,0,1,0,0)"><svg width="244.43135999999998" viewBox="1.7999999999999998 -28 96.39 28" height="70.99666058091285" data-palette-color="url(#ce532682-ca67-45d7-96cd-bb150a752f03)"><path d="M18-24Q18.2-23.2 18.2-22L18.2-22Q18.2-20.85 18-20L18-20Q18.2-19.2 18.2-18L18.2-18Q18.2-16.85 18-16L18-16 16.5-16Q16.7-15.2 16.7-14L16.7-14Q16.7-12.85 16.5-12L16.5-12 15-12Q15.2-11.2 15.2-10L15.2-10Q15.2-8.85 15-8L15-8 14-8Q14.2-7.2 14.2-6L14.2-6Q14.2-4.85 14-4L14-4 12-4Q12.2-3.2 12.2-2L12.2-2Q12.2-0.85 12 0L12 0 8 0Q7.8-0.85 7.8-2L7.8-2Q7.8-3.2 8-4L8-4 6-4Q5.8-4.85 5.8-6L5.8-6Q5.8-7.2 6-8L6-8 5-8Q4.8-8.85 4.8-10L4.8-10Q4.8-11.2 5-12L5-12 3.5-12Q3.3-12.85 3.3-14L3.3-14Q3.3-15.2 3.5-16L3.5-16 2-16Q1.8-16.85 1.8-18L1.8-18Q1.8-19.2 2-20L2-20Q1.8-20.85 1.8-22L1.8-22Q1.8-23.2 2-24L2-24Q1.8-24.85 1.8-26L1.8-26Q1.8-27.2 2-28L2-28 6-28Q6.2-27.2 6.2-26L6.2-26Q6.2-24.85 6-24L6-24Q6.2-23.2 6.2-22L6.2-22Q6.2-20.85 6-20L6-20Q6.2-19.2 6.2-18L6.2-18Q6.2-16.85 6-16L6-16 7.5-16Q7.7-15.2 7.7-14L7.7-14Q7.7-12.85 7.5-12L7.5-12 9-12Q9.2-11.2 9.2-10L9.2-10Q9.2-8.85 9-8L9-8 11-8Q10.8-8.85 10.8-10L10.8-10Q10.8-11.2 11-12L11-12 12.5-12Q12.3-12.85 12.3-14L12.3-14Q12.3-15.2 12.5-16L12.5-16 14-16Q13.8-16.85 13.8-18L13.8-18Q13.8-19.2 14-20L14-20Q13.8-20.85 13.8-22L13.8-22Q13.8-23.2 14-24L14-24Q13.8-24.85 13.8-26L13.8-26Q13.8-27.2 14-28L14-28 18-28Q18.2-27.2 18.2-26L18.2-26Q18.2-24.85 18-24L18-24ZM38.2-6Q38.2-4.85 38-4L38-4Q38.2-3.2 38.2-2L38.2-2Q38.2-0.85 38 0L38 0 34 0Q33.8-0.85 33.8-2L33.8-2Q33.8-3.2 34-4L34-4Q33.8-4.85 33.8-6L33.8-6Q33.8-7.2 34-8L34-8 26-8Q26.2-7.2 26.2-6L26.2-6Q26.2-4.85 26-4L26-4Q26.2-3.2 26.2-2L26.2-2Q26.2-0.85 26 0L26 0 22 0Q21.8-0.85 21.8-2L21.8-2Q21.8-3.2 22-4L22-4Q21.8-4.85 21.8-6L21.8-6Q21.8-7.2 22-8L22-8 23.5-8Q23.3-8.85 23.3-10L23.3-10Q23.3-11.2 23.5-12L23.5-12Q23.3-12.85 23.3-14L23.3-14Q23.3-15.2 23.5-16L23.5-16 24.5-16Q24.3-16.85 24.3-18L24.3-18Q24.3-19.2 24.5-20L24.5-20 26-20Q25.8-20.85 25.8-22L25.8-22Q25.8-23.2 26-24L26-24 27-24Q26.8-24.85 26.8-26L26.8-26Q26.8-27.2 27-28L27-28 33-28Q33.2-27.2 33.2-26L33.2-26Q33.2-24.85 33-24L33-24 34-24Q34.2-23.2 34.2-22L34.2-22Q34.2-20.85 34-20L34-20 35.5-20Q35.7-19.2 35.7-18L35.7-18Q35.7-16.85 35.5-16L35.5-16 36.5-16Q36.7-15.2 36.7-14L36.7-14Q36.7-12.85 36.5-12L36.5-12Q36.7-11.2 36.7-10L36.7-10Q36.7-8.85 36.5-8L36.5-8 38-8Q38.2-7.2 38.2-6L38.2-6ZM32.5-12Q32.3-12.85 32.3-14L32.3-14Q32.3-15.2 32.5-16L32.5-16 31.5-16Q31.3-16.85 31.3-18L31.3-18Q31.3-19.2 31.5-20L31.5-20 28.5-20Q28.7-19.2 28.7-18L28.7-18Q28.7-16.85 28.5-16L28.5-16 27.5-16Q27.7-15.2 27.7-14L27.7-14Q27.7-12.85 27.5-12L27.5-12 32.5-12ZM56.5-4L58-4Q58.2-3.2 58.2-2L58.2-2Q58.2-0.85 58 0L58 0 54 0Q53.8-0.85 53.8-2L53.8-2Q53.8-3.2 54-4L54-4 52.5-4Q52.3-4.85 52.3-6L52.3-6Q52.3-7.2 52.5-8L52.5-8 51-8Q50.8-8.85 50.8-10L50.8-10Q50.8-11.2 51-12L51-12 46-12Q46.2-11.2 46.2-10L46.2-10Q46.2-8.85 46-8L46-8Q46.2-7.2 46.2-6L46.2-6Q46.2-4.85 46-4L46-4Q46.2-3.2 46.2-2L46.2-2Q46.2-0.85 46 0L46 0 42 0Q41.8-0.85 41.8-2L41.8-2Q41.8-3.2 42-4L42-4Q41.8-4.85 41.8-6L41.8-6Q41.8-7.2 42-8L42-8Q41.8-8.85 41.8-10L41.8-10Q41.8-11.2 42-12L42-12Q41.8-12.85 41.8-14L41.8-14Q41.8-15.2 42-16L42-16Q41.8-16.85 41.8-18L41.8-18Q41.8-19.2 42-20L42-20Q41.8-20.85 41.8-22L41.8-22Q41.8-23.2 42-24L42-24Q41.8-24.85 41.8-26L41.8-26Q41.8-27.2 42-28L42-28 56-28Q56.2-27.2 56.2-26L56.2-26Q56.2-24.85 56-24L56-24 58-24Q58.2-23.2 58.2-22L58.2-22Q58.2-20.85 58-20L58-20 57-20Q57.2-19.2 57.2-18L57.2-18Q57.2-16.85 57-16L57-16 54-16Q54.2-15.2 54.2-14L54.2-14Q54.2-12.85 54-12L54-12 55-12Q55.2-11.2 55.2-10L55.2-10Q55.2-8.85 55-8L55-8 56.5-8Q56.7-7.2 56.7-6L56.7-6Q56.7-4.85 56.5-4L56.5-4ZM53-16Q52.8-16.85 52.8-18L52.8-18Q52.8-19.2 53-20L53-20Q52.8-20.85 52.8-22L52.8-22Q52.8-23.2 53-24L53-24 46-24Q46.2-23.2 46.2-22L46.2-22Q46.2-20.85 46-20L46-20Q46.2-19.2 46.2-18L46.2-18Q46.2-16.85 46-16L46-16 53-16ZM77.99-24Q78.19-23.2 78.19-22L78.19-22Q78.19-20.85 77.99-20L77.99-20Q78.19-19.2 78.19-18L78.19-18Q78.19-16.85 77.99-16L77.99-16Q78.19-15.2 78.19-14L78.19-14Q78.19-12.85 77.99-12L77.99-12Q78.19-11.2 78.19-10L78.19-10Q78.19-8.85 77.99-8L77.99-8Q78.19-7.2 78.19-6L78.19-6Q78.19-4.85 77.99-4L77.99-4 75.99-4Q76.19-3.2 76.19-2L76.19-2Q76.19-0.85 75.99 0L75.99 0 63.99 0Q63.79-0.85 63.79-2L63.79-2Q63.79-3.2 63.99-4L63.99-4 61.99-4Q61.79-4.85 61.79-6L61.79-6Q61.79-7.2 61.99-8L61.99-8Q61.79-8.85 61.79-10L61.79-10Q61.79-11.2 61.99-12L61.99-12Q61.79-12.85 61.79-14L61.79-14Q61.79-15.2 61.99-16L61.99-16Q61.79-16.85 61.79-18L61.79-18Q61.79-19.2 61.99-20L61.99-20Q61.79-20.85 61.79-22L61.79-22Q61.79-23.2 61.99-24L61.99-24Q61.79-24.85 61.79-26L61.79-26Q61.79-27.2 61.99-28L61.99-28 65.99-28Q66.19-27.2 66.19-26L66.19-26Q66.19-24.85 65.99-24L65.99-24Q66.19-23.2 66.19-22L66.19-22Q66.19-20.85 65.99-20L65.99-20Q66.19-19.2 66.19-18L66.19-18Q66.19-16.85 65.99-16L65.99-16Q66.19-15.2 66.19-14L66.19-14Q66.19-12.85 65.99-12L65.99-12Q66.19-11.2 66.19-10L66.19-10Q66.19-8.85 65.99-8L65.99-8Q66.19-7.2 66.19-6L66.19-6Q66.19-4.85 65.99-4L65.99-4 73.99-4Q73.79-4.85 73.79-6L73.79-6Q73.79-7.2 73.99-8L73.99-8Q73.79-8.85 73.79-10L73.79-10Q73.79-11.2 73.99-12L73.99-12Q73.79-12.85 73.79-14L73.79-14Q73.79-15.2 73.99-16L73.99-16Q73.79-16.85 73.79-18L73.79-18Q73.79-19.2 73.99-20L73.99-20Q73.79-20.85 73.79-22L73.79-22Q73.79-23.2 73.99-24L73.99-24Q73.79-24.85 73.79-26L73.79-26Q73.79-27.2 73.99-28L73.99-28 77.99-28Q78.19-27.2 78.19-26L78.19-26Q78.19-24.85 77.99-24L77.99-24ZM97.99-24Q98.19-23.2 98.19-22L98.19-22Q98.19-20.85 97.99-20L97.99-20Q98.19-19.2 98.19-18L98.19-18Q98.19-16.85 97.99-16L97.99-16Q98.19-15.2 98.19-14L98.19-14Q98.19-12.85 97.99-12L97.99-12Q98.19-11.2 98.19-10L98.19-10Q98.19-8.85 97.99-8L97.99-8Q98.19-7.2 98.19-6L98.19-6Q98.19-4.85 97.99-4L97.99-4Q98.19-3.2 98.19-2L98.19-2Q98.19-0.85 97.99 0L97.99 0 93.99 0Q93.79-0.85 93.79-2L93.79-2Q93.79-3.2 93.99-4L93.99-4 91.49-4Q91.29-4.85 91.29-6L91.29-6Q91.29-7.2 91.49-8L91.49-8 89.99-8Q89.79-8.85 89.79-10L89.79-10Q89.79-11.2 89.99-12L89.99-12 87.99-12Q87.79-12.85 87.79-14L87.79-14Q87.79-15.2 87.99-16L87.99-16 85.99-16Q86.19-15.2 86.19-14L86.19-14Q86.19-12.85 85.99-12L85.99-12Q86.19-11.2 86.19-10L86.19-10Q86.19-8.85 85.99-8L85.99-8Q86.19-7.2 86.19-6L86.19-6Q86.19-4.85 85.99-4L85.99-4Q86.19-3.2 86.19-2L86.19-2Q86.19-0.85 85.99 0L85.99 0 81.99 0Q81.79-0.85 81.79-2L81.79-2Q81.79-3.2 81.99-4L81.99-4Q81.79-4.85 81.79-6L81.79-6Q81.79-7.2 81.99-8L81.99-8Q81.79-8.85 81.79-10L81.79-10Q81.79-11.2 81.99-12L81.99-12Q81.79-12.85 81.79-14L81.79-14Q81.79-15.2 81.99-16L81.99-16Q81.79-16.85 81.79-18L81.79-18Q81.79-19.2 81.99-20L81.99-20Q81.79-20.85 81.79-22L81.79-22Q81.79-23.2 81.99-24L81.99-24Q81.79-24.85 81.79-26L81.79-26Q81.79-27.2 81.99-28L81.99-28 86.99-28Q87.19-27.2 87.19-26L87.19-26Q87.19-24.85 86.99-24L86.99-24 88.49-24Q88.69-23.2 88.69-22L88.69-22Q88.69-20.85 88.49-20L88.49-20 89.99-20Q90.19-19.2 90.19-18L90.19-18Q90.19-16.85 89.99-16L89.99-16 91.99-16Q92.19-15.2 92.19-14L92.19-14Q92.19-12.85 91.99-12L91.99-12 93.99-12Q93.79-12.85 93.79-14L93.79-14Q93.79-15.2 93.99-16L93.99-16Q93.79-16.85 93.79-18L93.79-18Q93.79-19.2 93.99-20L93.99-20Q93.79-20.85 93.79-22L93.79-22Q93.79-23.2 93.99-24L93.99-24Q93.79-24.85 93.79-26L93.79-26Q93.79-27.2 93.99-28L93.99-28 97.99-28Q98.19-27.2 98.19-26L98.19-26Q98.19-24.85 97.99-24L97.99-24Z" opacity="1" transform="matrix(1,0,0,1,0,0)" fill="black" class="wordmark-text-0" id="SvgjsPath10120"></path></svg></g></svg></g></svg></g></svg></g></svg></g></svg></g><path d="M206.487 82.102L206.487 25.362 10.012 25.362 10.012 221.838 206.487 221.838 206.487 165.098 200.085 165.098 200.085 215.435 16.415 215.435 16.415 31.765 200.085 31.765 200.085 82.102Z" fill="black" stroke="transparent"></path></svg></g><defs><mask></mask></defs></svg><rect width="395.52" height="247.2" fill="black" stroke="none" visibility="hidden"></rect></g></mask></svg><rect width="395.52" height="247.2" fill="black" stroke="none" visibility="hidden"></rect></g></mask><linearGradient x1="0" x2="1" y1="0.578" y2="0.595" id="28165131-db85-4b66-b2cf-6918bf007759"><stop stop-color="#dede50" offset="0"></stop><stop stop-color="#559c49" offset="1"></stop></linearGradient></svg><rect width="395.52" height="247.2" fill="none" stroke="none" visibility="hidden"></rect></g></svg></g></svg>